<svg width="58" height="67" viewBox="0 0 58 67" fill="none" xmlns="http://www.w3.org/2000/svg">
<rect width="58" height="67" fill="black"/>
<path d="M54.2278 57.5085C55.3479 57.5085 55.908 57.5085 56.3358 57.7265C56.7121 57.9183 57.0181 58.2242 57.2099 58.6006C57.4278 59.0284 57.4278 59.5884 57.4278 60.7085L57.4278 63.0834C57.4278 64.2035 57.4278 64.7635 57.2099 65.1913C57.0181 65.5677 56.7121 65.8736 56.3358 66.0654C55.908 66.2834 55.3479 66.2834 54.2278 66.2834L3.5916 66.2834C2.47149 66.2834 1.91144 66.2834 1.48362 66.0654C1.10729 65.8736 0.801333 65.5677 0.609587 65.1913C0.3916 64.7635 0.3916 64.2035 0.3916 63.0834L0.391601 60.7085C0.391601 59.5884 0.391601 59.0284 0.609588 58.6006C0.801335 58.2242 1.1073 57.9183 1.48362 57.7265C1.91144 57.5085 2.4715 57.5085 3.5916 57.5085L54.2278 57.5085Z" fill="white"/>
<path d="M45.4531 28.7638C46.5732 28.7638 47.1333 28.7638 47.5611 28.9818C47.9374 29.1735 48.2434 29.4795 48.4351 29.8558C48.6531 30.2836 48.6531 30.8437 48.6531 31.9638V34.3386C48.6531 35.4587 48.6531 36.0188 48.4351 36.4466C48.2434 36.8229 47.9374 37.1289 47.5611 37.3206C47.1333 37.5386 46.5732 37.5386 45.4531 37.5386H12.3665C11.2464 37.5386 10.6863 37.5386 10.2585 37.3206C9.8822 37.1289 9.57624 36.8229 9.38449 36.4466C9.1665 36.0188 9.1665 35.4587 9.1665 34.3386V31.9638C9.1665 30.8437 9.1665 30.2836 9.38449 29.8558C9.57624 29.4795 9.8822 29.1735 10.2585 28.9818C10.6863 28.7638 11.2464 28.7638 12.3665 28.7638H45.4531Z" fill="white"/>
<path d="M54.2278 0.0192871C55.348 0.0192871 55.908 0.0192871 56.3358 0.237274C56.7121 0.429021 57.0181 0.734982 57.2099 1.11131C57.4278 1.53913 57.4278 2.09918 57.4278 3.21929V5.59409C57.4278 6.7142 57.4278 7.27425 57.2099 7.70207C57.0181 8.0784 56.7121 8.38436 56.3358 8.57611C55.908 8.79409 55.3479 8.79409 54.2278 8.79409H3.5916C2.4715 8.79409 1.91144 8.79409 1.48362 8.57611C1.1073 8.38436 0.801335 8.0784 0.609589 7.70207C0.391602 7.27425 0.391602 6.7142 0.391602 5.59409V3.21929C0.391602 2.09918 0.391602 1.53913 0.609589 1.11131C0.801335 0.734982 1.1073 0.429021 1.48362 0.237274C1.91144 0.0192871 2.4715 0.0192871 3.5916 0.0192871H54.2278Z" fill="white"/>
</svg>
